<?xml version="1.0" encoding="UTF-8" standalone="no"?>
<svg
   width="306.45901"
   height="101.625"
   viewBox="0 0 229.84425 76.218743"
   version="1.1"
   id="svg1568"
   sodipodi:docname="logotype-wide.svg"
   inkscape:version="1.2.2 (b0a8486541, 2022-12-01)"
   xmlns:inkscape="http://www.inkscape.org/namespaces/inkscape"
   xmlns:sodipodi="http://sodipodi.sourceforge.net/DTD/sodipodi-0.dtd"
   xmlns="http://www.w3.org/2000/svg"
   xmlns:svg="http://www.w3.org/2000/svg">
  <defs
     id="defs1572" />
  <sodipodi:namedview
     id="namedview1570"
     pagecolor="#ffffff"
     bordercolor="#000000"
     borderopacity="0.25"
     inkscape:showpageshadow="2"
     inkscape:pageopacity="0.0"
     inkscape:pagecheckerboard="0"
     inkscape:deskcolor="#d1d1d1"
     inkscape:document-units="pt"
     showgrid="false"
     inkscape:zoom="1.1734896"
     inkscape:cx="29.825572"
     inkscape:cy="175.5448"
     inkscape:window-width="2560"
     inkscape:window-height="1371"
     inkscape:window-x="0"
     inkscape:window-y="32"
     inkscape:window-maximized="1"
     inkscape:current-layer="surface1" />
  <g
     id="surface1"
     transform="matrix(0.32633463,0,0,0.32633463,-159.18374,-120.45361)">
    <path
       style="fill:#1c7361;fill-opacity:1;fill-rule:nonzero;stroke:none"
       d="m 765.71601,595.50025 h 23.32422 v -33.30079 c 0,-4.83203 2.625,-7.03906 6.30078,-7.03906 3.88672,0 6.19922,2.20703 6.19922,7.03906 v 33.30079 h 23.32031 v -33.30079 c 0,-4.83203 2.51953,-7.03906 6.30469,-7.03906 3.99218,0 6.30078,2.20703 6.30078,7.03906 v 33.30079 h 23.42578 v -37.81641 c 0,-17.33594 -9.13672,-23.11328 -20.48438,-23.11328 -9.875,0 -15.96875,5.67578 -17.4375,10.92578 h -0.83984 c -3.57422,-8.19141 -8.82422,-10.92578 -16.59766,-10.92578 -8.30078,0 -14.18359,4.9375 -15.65234,9.98047 h -0.83984 v -8.40235 h -23.32422 z m 102.53125,-29.625 c 0,18.28125 10.82031,31.20312 26.26172,31.20312 7.98437,0 14.18359,-3.46875 16.80859,-9.98047 h 0.73437 v 8.40235 h 23.11329 v -59.35157 h -23.11329 v 8.40235 h -0.73437 c -2.625,-6.40625 -8.82422,-9.98047 -16.80859,-9.98047 -14.4961,0 -26.26172,12.29297 -26.26172,31.30469 z m 33.71875,10.61328 c -5.77735,0 -10.29297,-3.67969 -10.29297,-10.71485 0,-6.82812 4.41015,-10.61328 10.29297,-10.61328 5.67578,0 10.1914,3.67969 10.1914,10.61328 0,7.03516 -4.51562,10.71485 -10.1914,10.71485 z m 84.04297,-15.02344 v -26.89453 c -9.2461,0 -15.65235,4.9375 -18.80469,14.70703 h -0.83985 v -13.12891 h -21.11718 v 59.35157 h 23.00781 v -21.42969 c 0,-8.71875 4.83203,-13.44531 11.87109,-13.44531 2.625,0 4.6211,0.41796 5.88282,0.83984 z m 7.14062,34.03516 h 23.2187 v -59.35157 h -23.2187 z m 0,-65.55079 h 23.2187 v -6.40625 h -23.2187 z m 33.3008,65.55079 h 23.3242 v -33.30079 c 0,-4.83203 2.625,-7.03906 6.3008,-7.03906 3.8867,0 6.1992,2.20703 6.1992,7.03906 v 33.30079 h 23.3203 v -33.30079 c 0,-4.83203 2.5234,-7.03906 6.3047,-7.03906 3.9922,0 6.3008,2.20703 6.3008,7.03906 v 33.30079 h 23.4257 v -37.81641 c 0,-17.33594 -9.1367,-23.11328 -20.4843,-23.11328 -9.875,0 -15.9649,5.67578 -17.4375,10.92578 h -0.8399 c -3.5703,-8.19141 -8.8242,-10.92578 -16.5976,-10.92578 -8.3008,0 -14.1836,4.9375 -15.6524,9.98047 h -0.8398 v -8.40235 h -23.3242 z m 134.1523,1.57812 c 18.2774,0 31.5117,-13.02734 31.5117,-31.30469 0,-18.80468 -13.2343,-31.19922 -31.5117,-31.19922 -18.8008,0 -31.6172,13.02735 -31.6172,31.30469 0,18.17188 12.8164,31.19922 31.6172,31.19922 z m -0.3164,-17.62109 c -8.9297,0 -15.2344,-6.30469 -15.2344,-13.6836 0,-7.3789 6.3047,-13.47265 15.2344,-13.47265 8.6172,0 15.1289,6.19922 15.1289,13.47265 0,7.37891 -6.5117,13.6836 -15.1289,13.6836 z"
       id="path1531" />
    <path
       style="fill:#1c7361;fill-opacity:1;fill-rule:nonzero;stroke:none"
       d="m 517.37109,413.55859 c 1.51172,-1.78125 3.1875,-4.15625 2.10547,-6.26172 6.04688,-3.5625 11.39063,-8.26171 15.76172,-13.76562 -2.375,1.89062 -4.96484,3.40234 -7.71875,4.58984 20.67578,-20.40625 51.76953,-29.6914 80.32422,-23.96875 -22.99609,-0.86328 -46.42188,5.23438 -65.42578,18.19141 -19.05469,12.90234 -33.51953,32.71094 -39.07813,55.05859 8.41797,-24.45312 26.17969,-45.55859 48.85157,-57.97265 -1.78125,1.83593 -3.56641,3.72265 -5.39844,5.55859 8.63672,-3.5625 16.46094,-8.90625 25.04687,-12.63281 25.20703,-11.01172 55.54297,-6.85547 79.02344,7.5039 23.48047,14.35938 40.37891,37.89454 50.20313,63.58985 4.3164,11.22656 7.33984,23.69531 3.50781,35.08594 -0.86328,-14.84375 -5.72266,-29.14844 -12.03906,-42.58985 -10.47266,-22.40234 -25.47657,-43.39844 -46.58204,-56.24609 -21.10546,-12.79297 -49.01562,-16.19531 -70.60546,-4.15625 11.0664,-1.1875 22.23828,-1.83594 33.19531,-0.26953 20.62109,2.91406 39.67578,13.71093 54.14062,28.66015 14.41407,15.00782 24.40235,33.95313 30.28516,53.8711 5.72266,19.48828 7.60937,40.97265 0.26953,59.97265 21.42969,-34.65625 17.86719,-82.91015 -8.3125,-114.05859 -10.95703,-13.00781 -25.15625,-22.99609 -40.48437,-30.22656 -17.70704,-8.3125 -37.14063,-13.11719 -56.67969,-12.57813 -19.53906,0.53906 -39.08203,6.64063 -54.67969,18.40625 12.95313,-11.44531 29.84766,-17.92187 47.01563,-19.70312 17.21875,-1.72657 34.65234,1.08203 51.01171,6.58593 34.00391,11.55079 64.98829,37.03125 74.97657,71.52344 2.53515,8.85156 3.66797,18.02735 4.69531,27.20703 0.86328,7.9336 1.56641,15.86719 1.40234,23.85547 -0.7539,39.46094 -25.96484,78.00391 -62.72265,92.41406 -10.41797,4.05079 -21.42969,6.26172 -32.4961,7.82813 -17.70703,2.48047 -36.05859,3.23828 -53.11718,-2.05078 -8.79688,-2.75391 -17.00391,-7.01953 -24.61329,-12.25391 -31.52343,-21.59375 -51.4414,-59.21484 -51.4414,-97.43359 0,-6.80078 0.59375,-13.54688 1.51172,-20.24219 0.80859,-6.15234 1.88672,-12.25391 3.66797,-18.19141 2.69921,-8.74609 6.91015,-17.0039 12.47265,-24.28906 0.96875,-0.59375 1...."
       id="path1533" />
    <path
       style="fill:#1c7361;fill-opacity:1;fill-rule:nonzero;stroke:none"
       d="m 527.08984,398.39062 c 0.10547,0.16016 0.21485,0.375 0.32422,0.53907 -0.48828,0.69922 -1.40625,1.02343 -2.21484,0.80859 0.43359,-0.59375 1.08203,-1.02344 1.78125,-1.1875"
       id="path1535" />
    <path
       style="fill:#1c7361;fill-opacity:1;fill-rule:nonzero;stroke:none"
       d="m 522.82422,401.84375 c 0.75781,-0.26953 1.5664,-0.43359 2.375,-0.37891 -0.16016,1.1875 -2.16016,1.51172 -2.64453,0.37891"
       id="path1537" />
    <path
       style="fill:#1c7361;fill-opacity:1;fill-rule:nonzero;stroke:none"
       d="m 520.125,399.35937 c 0.48828,-0.7539 1.40234,-1.29296 2.375,-1.1875 0.21484,0.54297 0.0547,1.1875 -0.37891,1.56641 -0.7539,0.10938 -1.67187,0.21484 -2.21093,-0.37891"
       id="path1539" />
    <path
       style="fill:#1c7361;fill-opacity:1;fill-rule:nonzero;stroke:none"
       d="m 671.42969,402.92187 c 0.32422,-0.0508 0.64843,0.26954 0.59375,0.59375 -0.0547,0.32422 -0.42969,0.54297 -0.75391,0.4336 -0.48828,-0.53906 -0.97266,-1.13281 -1.45703,-1.72656 0.53906,-0.4336 1.50781,-0.0547 1.61719,0.59375"
       id="path1541" />
    <path
       style="fill:#1c7361;fill-opacity:1;fill-rule:nonzero;stroke:none"
       d="m 524.98437,394.93359 c 0.37891,-0.42968 1.13282,-0.42968 1.56641,-0.0547 -0.70312,0.70312 -1.62109,1.1875 -2.59375,1.51171 -0.10547,-0.59375 0.43359,-1.29296 1.02734,-1.24218"
       id="path1543" />
    <path
       style="fill:#1c7361;fill-opacity:1;fill-rule:nonzero;stroke:none"
       d="m 516.13281,445.13672 c 0.48438,-0.70313 1.78125,-0.4336 1.94141,0.42969 -0.64844,-0.10547 -1.34766,0.10937 -1.78125,0.59375 -0.26953,0.10937 -0.70313,-0.10547 -0.70313,-0.42969 -0.0508,-0.26953 0.27344,-0.59375 0.59375,-0.54297"
       id="path1545" />
    <path
       style="fill:#1c7361;fill-opacity:1;fill-rule:nonzero;stroke:none"
       d="m 547.00781,410.58984 c 0.26953,-0.10937 0.64844,-0.21875 0.91797,-0.10937 0.32422,0.10937 0.48438,0.59375 0.26953,0.80859 -1.02734,0.64844 -2.21484,1.02735 -3.40234,1.08203 0.54297,-0.75781 1.35156,-1.35156 2.21484,-1.78125"
       id="path1547" />
    <path
       style="fill:#1c7361;fill-opacity:1;fill-rule:nonzero;stroke:none"
       d="m 562.92969,579.27344 c 0.54297,0.3789 1.13672,0.75781 1.67578,1.13281 -1.1875,0.48828 -2.58985,0.21875 -3.5625,-0.64453 -0.21485,-0.37891 0.21484,-0.91797 0.59375,-0.91797 0.48437,-0.0547 0.91797,0.21484 1.29297,0.42969"
       id="path1549" />
    <path
       style="fill:#1c7361;fill-opacity:1;fill-rule:nonzero;stroke:none"
       d="m 538.26172,405.62109 c -0.26953,-0.80859 -0.0547,-1.78125 0.59375,-2.375 0.43359,-0.10547 0.86328,-0.42968 1.02734,-0.91797 0.69922,0.26954 1.34766,0.54297 2.05078,0.8125 -1.1875,0.8086 -2.42968,1.61719 -3.67187,2.48047"
       id="path1551" />
    <path
       style="fill:#1c7361;fill-opacity:1;fill-rule:nonzero;stroke:none"
       d="m 511.92187,463.59766 c 0,-0.32422 0,-0.64844 0,-0.97266 0.53907,-0.26953 1.13282,-0.26953 1.61719,-0.0547 -0.96875,1.02735 -1.51172,2.42969 -1.40234,3.83203 -0.59375,-0.42968 -1.24219,-0.91797 -1.89063,-1.34765 0.54297,-0.4336 1.13672,-0.91797 1.73047,-1.40625"
       id="path1553" />
    <path
       style="fill:#1c7361;fill-opacity:1;fill-rule:nonzero;stroke:none"
       d="m 508.35937,415.93359 c 0.21485,-1.67578 1.1875,-3.1875 2.53516,-4.21093 0.37891,-0.26954 0.97266,-0.4336 1.1875,-0.0547 -1.1875,1.1875 -2.16016,2.53515 -2.85937,4.04687 -0.16407,0.27344 -0.59375,0.4336 -0.86329,0.21875"
       id="path1555" />
    <path
       style="fill:#1c7361;fill-opacity:1;fill-rule:nonzero;stroke:none"
       d="m 513.91797,449.39844 c 1.07812,-0.8086 2.10547,-1.61719 3.18359,-2.42969 -0.26953,1.02734 -0.53906,1.94531 -0.80859,2.96875 -0.37891,0.21875 -0.64844,0.59766 -1.02344,0.8125 -0.37891,0.21484 -0.91797,0.26953 -1.1875,-0.10938 -0.21875,-0.3789 0.375,-0.91796 0.59375,-0.53906 -0.21875,-0.21484 -0.48828,-0.43359 -0.75781,-0.70312"
       id="path1557" />
    <path
       style="fill:#1c7361;fill-opacity:1;fill-rule:nonzero;stroke:none"
       d="m 555.05078,407.56641 c -0.10937,0.26953 -0.21484,0.53906 -0.10937,0.86328 -0.86329,0.16015 -1.67188,0.32422 -2.42969,0.48437 -0.10547,0.32422 -0.21485,0.64844 -0.32031,0.97266 -0.64844,-0.0547 -1.29688,-0.0547 -1.89063,-0.0547 -0.53906,-0.26953 0,-1.02344 0.53906,-1.29297 1.07813,-0.54297 2.21485,-0.86719 3.40235,-1.02734 -0.16407,-0.26953 -0.32422,-0.48438 -0.48828,-0.75391 0.86328,-0.70312 1.89062,-1.1875 3.02343,-1.51172 0.21485,0.375 0.26953,0.8086 0.16407,1.23828 -0.37891,0.16407 -0.75782,0.21875 -1.13672,0.10938 0.0547,0.26953 0.10937,0.53906 0.16406,0.86328 -0.37891,0.10938 -0.64844,0.16406 -0.91797,0.10938"
       id="path1559" />
    <path
       style="fill:#1c7361;fill-opacity:1;fill-rule:nonzero;stroke:none"
       d="m 512.83984,412.64062 c 0.42969,-0.26953 1.02344,-0.3789 1.51172,-0.26953 -0.21875,-0.26953 -0.3789,-0.54297 -0.54297,-0.8125 0.54297,-0.10547 1.08203,-0.21484 1.67578,-0.26953 0.21485,-0.53906 0.21485,-1.1875 0,-1.72656 0.59375,-0.0547 1.24219,0.0547 1.78125,0.26953 0.16016,0.21484 0.21485,0.53906 0.16016,0.80859 -0.26953,0.10938 -0.59375,0.21875 -0.91797,0.32422 -0.10547,0.54297 -0.26953,1.08203 -0.375,1.6211 -0.26953,0.16015 -0.70312,0.21484 -1.02734,0.10937 -0.48438,2.91406 -3.67188,4.58594 -4.80469,7.28516 -0.37891,0.91797 -0.75391,2.10547 -1.72656,2.10547 -0.26953,-0.32422 -0.21485,-0.91797 0.16015,-1.1875 -0.375,-0.10938 -0.69921,-0.21485 -1.02343,-0.32422 -0.0547,-0.59375 0.91797,-0.42969 1.40234,-0.0547 0.43359,-0.375 0.0547,-1.24219 -0.48437,-1.24219 0.59375,-0.48437 0.97265,-1.23828 1.07812,-1.99609 0.59375,0.0547 1.1875,-0.16016 1.56641,-0.59375 -0.4336,0.10937 -0.91797,-0.21484 -1.02735,-0.69922 0.86328,0.16016 1.73047,-0.64844 1.67578,-1.51172 0.64844,-0.3789 1.29297,-0.75781 1.94141,-1.13672 -0.26953,-0.16015 -0.64844,-0.42968 -1.02344,-0.69922"
       id="path1561" />
    <path
       style="fill:#1c7361;fill-opacity:1;fill-rule:nonzero;stroke:none"
       d="m 682.38672,415.5 c -1.1875,-1.61719 -2.42969,-3.18359 -3.9375,-4.53516 -2.10547,-1.88672 -4.80469,-3.5625 -5.23828,-6.36718 12.6875,10.74218 22.45703,24.9375 27.90625,40.64453 0.48828,0.43359 -0.0508,1.40625 -0.64453,1.24218 -4.75,-10.95703 -10.85157,-21.42968 -18.08594,-30.98437"
       id="path1563" />
    <path
       style="fill:#1c7361;fill-opacity:1;fill-rule:nonzero;stroke:none"
       d="m 539.88281,406.97266 c 2.21094,-1.78125 4.75,-3.45704 5.66797,-6.15625 0.26953,-0.75391 1.02344,-1.34766 1.72656,-1.78125 10.90235,-6.85547 23.64453,-10.63282 36.48828,-10.84766 -6.42187,1.72656 -12.79296,3.39844 -19.21484,5.12891 -9.98437,2.64453 -17.32812,10.90234 -24.07422,18.78515 -5.83203,6.85547 -11.71484,13.71094 -17.54297,20.61719 -0.70312,1.89062 -1.35156,3.83203 -2.05078,5.72266 -0.26953,0.86328 -0.59375,1.72656 -1.35156,2.26562 -0.69922,0.54297 -1.88672,0.54297 -2.32031,-0.26953 2.58984,-4.53125 5.18359,-9.12109 7.82812,-13.71094 4.21094,-7.125 8.41797,-14.46484 14.84375,-19.7539"
       id="path1565" />
    <path
       style="fill:#1c7361;stroke-width:329.416;fill-opacity:1"
       d="m 807.20447,384.51478 c -26.5737,60.43563 -47.4749,123.1298 -79.1935,181.27845 -4.84102,8.87488 -13.83797,28.7833 -21.93224,36.87801"
       id="path928" />
  </g>
</svg>
